<?xml version="1.0" encoding="utf-8"?>
<!-- Generator: Adobe Illustrator 24.0.0, SVG Export Plug-In . SVG Version: 6.00 Build 0)  -->
<svg version="1.1" xmlns="http://www.w3.org/2000/svg" xmlns:xlink="http://www.w3.org/1999/xlink" x="0px" y="0px"
	 viewBox="0 0 256 256" style="enable-background:new 0 0 256 256;" xml:space="preserve">
<style type="text/css">
	.st0{fill:#F98FA6;}
	.st1{fill:#FC657E;}
	.st2{fill:#DAE6F1;}
	.st3{fill:#5290DB;}
	.st4{fill:#FCDD86;}
	.st5{fill:#F5C84C;}
	.st6{fill:#87D147;}
	.st7{fill:#70D6F9;}
	.st8{fill:#EDF4FC;}
	.st9{fill:#9BE5F9;}
	.st10{fill:#B2E26D;}
	.st11{fill:#F9C1A8;}
	.st12{fill:#414344;}
	.st13{fill:#E1FBFF;}
	.st14{fill:#FFE3EC;}
	.st15{fill:#FCBECF;}
	.st16{fill:#EF4460;}
	.st17{fill:#80C2F9;}
	.st18{fill:#3A70BF;}
	.st19{fill:#FCA265;}
	.st20{fill:#5B5D60;}
	.st21{fill:#818182;}
	.st22{fill:#C7D7E5;}
	.st23{fill:#F9D0B4;}
	.st24{fill:#AA6F59;}
	.st25{fill:#D1856D;}
	.st26{fill:#FCC29A;}
	.st27{fill:#29589F;}
	.st28{fill:#F7B386;}
	.st29{fill:#FC8C48;}
	.st30{fill:#FFF0CC;}
	.st31{fill:#57AF12;}
	.st32{fill:#3CAADC;}
	.st33{fill:#EDB311;}
	.st34{fill:#231F20;}
</style>
<g id="Layer_1">
</g>
<g id="Layer_2">
</g>
<g id="Layer_3">
</g>
<g id="Layer_4">
</g>
<g id="Layer_5">
</g>
<g id="Layer_6">
</g>
<g id="Layer_7">
</g>
<g id="Layer_8">
</g>
<g id="Layer_9">
</g>
<g id="Layer_10">
</g>
<g id="Layer_11">
</g>
<g id="Layer_12">
</g>
<g id="Layer_13">
</g>
<g id="Layer_14">
</g>
<g id="Layer_15">
</g>
<g id="Layer_16">
</g>
<g id="Layer_17">
</g>
<g id="Layer_18">
</g>
<g id="Layer_19">
</g>
<g id="Layer_20">
</g>
<g id="Layer_21">
</g>
<g id="Layer_22">
</g>
<g id="Layer_23">
</g>
<g id="Layer_24">
</g>
<g id="Layer_25">
</g>
<g id="Layer_26">
</g>
<g id="Layer_27">
</g>
<g id="Layer_28">
</g>
<g id="Layer_29">
</g>
<g id="Layer_30">
</g>
<g id="Layer_31">
</g>
<g id="Layer_32">
</g>
<g id="Layer_33">
</g>
<g id="Layer_34">
</g>
<g id="Layer_35">
</g>
<g id="Layer_36">
</g>
<g id="Layer_37">
</g>
<g id="Layer_38">
</g>
<g id="Layer_39">
</g>
<g id="Layer_40">
</g>
<g id="Layer_41">
</g>
<g id="Layer_42">
</g>
<g id="Layer_43">
</g>
<g id="Layer_44">
</g>
<g id="Layer_45">
</g>
<g id="Layer_46">
</g>
<g id="Layer_47">
</g>
<g id="Layer_48">
</g>
<g id="Layer_49">
</g>
<g id="Layer_50">
</g>
<g id="Layer_51">
</g>
<g id="Layer_52">
</g>
<g id="Layer_53">
</g>
<g id="Layer_54">
</g>
<g id="Layer_55">
</g>
<g id="Layer_56">
</g>
<g id="Layer_57">
</g>
<g id="Layer_58">
</g>
<g id="Layer_59">
</g>
<g id="Layer_60">
</g>
<g id="Layer_61">
</g>
<g id="Layer_62">
</g>
<g id="Layer_63">
</g>
<g id="Layer_64">
</g>
<g id="Layer_65">
</g>
<g id="Layer_66">
</g>
<g id="Layer_67">
</g>
<g id="Layer_68">
</g>
<g id="Layer_69">
</g>
<g id="Layer_70">
</g>
<g id="Layer_71">
</g>
<g id="Layer_72">
</g>
<g id="Layer_73">
</g>
<g id="Layer_74">
	<g>
		<g>
			<g>
				<path class="st1" d="M75.362,130.515H60.007c-1.454,0-2.632,1.178-2.632,2.632v87.651h20.621v-87.651
					C77.995,131.693,76.816,130.515,75.362,130.515z"/>
			</g>
		</g>
		<g>
			<g>
				<path class="st5" d="M116.604,110.925h-15.356c-1.454,0-2.633,1.179-2.633,2.632v107.241h20.621V113.558
					C119.236,112.104,118.058,110.925,116.604,110.925z"/>
			</g>
		</g>
		<g>
			<g>
				<path class="st6" d="M157.845,152.167h-15.356c-1.454,0-2.632,1.179-2.632,2.633v65.999h20.621v-65.999
					C160.478,153.345,159.299,152.167,157.845,152.167z"/>
			</g>
		</g>
		<g>
			<g>
				<path class="st7" d="M199.086,88.243h-15.356c-1.454,0-2.633,1.179-2.633,2.632v129.923h20.621V90.875
					C201.719,89.421,200.54,88.243,199.086,88.243z"/>
			</g>
		</g>
		<g>
			<g>
				<path class="st5" d="M118.444,8.882c-4.498-0.837-8.043-4.31-8.898-8.716c-0.043-0.221-0.352-0.221-0.395,0
					c-0.855,4.406-4.4,7.879-8.898,8.716c-0.226,0.042-0.226,0.345,0,0.387c4.498,0.838,8.043,4.311,8.898,8.717
					c0.043,0.221,0.352,0.221,0.395,0c0.855-4.406,4.4-7.879,8.898-8.717C118.67,9.227,118.67,8.924,118.444,8.882z"/>
			</g>
		</g>
		<g>
			<g>
				<path class="st1" d="M227.364,120.851c-3.469-0.646-6.203-3.324-6.862-6.723c-0.033-0.17-0.271-0.17-0.305,0
					c-0.66,3.398-3.394,6.077-6.863,6.723c-0.174,0.033-0.174,0.266,0,0.298c3.469,0.646,6.203,3.325,6.863,6.723
					c0.033,0.17,0.271,0.17,0.305,0c0.659-3.398,3.393-6.077,6.862-6.723C227.538,121.117,227.538,120.883,227.364,120.851z"/>
			</g>
		</g>
		<g>
			<g>
				<path class="st7" d="M85.155,244.198h-2.329v-2.33c0-1.744-1.413-3.157-3.157-3.157s-3.157,1.414-3.157,3.157v2.33h-2.33
					c-1.744,0-3.157,1.413-3.157,3.157s1.413,3.157,3.157,3.157h2.33v2.33c0,1.744,1.413,3.157,3.157,3.157s3.157-1.414,3.157-3.157
					v-2.33h2.329c1.744,0,3.157-1.413,3.157-3.157S86.899,244.198,85.155,244.198z"/>
			</g>
		</g>
		<g>
			<g>
				<path class="st6" d="M91.461,21c-1.865,0-3.377,1.512-3.377,3.377c0,1.865,1.512,3.377,3.377,3.377s3.377-1.512,3.377-3.377
					C94.838,22.512,93.326,21,91.461,21z"/>
			</g>
		</g>
		<g>
			<g>
				<path class="st5" d="M109.461,237c-1.865,0-3.377,1.512-3.377,3.377c0,1.865,1.512,3.377,3.377,3.377s3.377-1.512,3.377-3.377
					C112.838,238.512,111.326,237,109.461,237z"/>
			</g>
		</g>
		<g>
			<g>
				<path d="M32.046,20.077c-1.381,0-2.5,1.119-2.5,2.5v204.534c0,1.381,1.119,2.5,2.5,2.5s2.5-1.119,2.5-2.5V22.577
					C34.546,21.196,33.427,20.077,32.046,20.077z"/>
			</g>
		</g>
		<g>
			<g>
				<path d="M230.267,218.298H25.733c-1.381,0-2.5,1.119-2.5,2.5s1.119,2.5,2.5,2.5h204.533c1.381,0,2.5-1.119,2.5-2.5
					S231.647,218.298,230.267,218.298z"/>
			</g>
		</g>
		<g>
			<g>
				<path d="M75.362,128.015H60.007c-2.83,0-5.133,2.303-5.133,5.133v86.645c0,1.381,1.119,2.5,2.5,2.5s2.5-1.119,2.5-2.5v-86.645
					c0-0.073,0.06-0.133,0.133-0.133h15.355c0.073,0,0.133,0.06,0.133,0.133v86.561c0,1.381,1.119,2.5,2.5,2.5s2.5-1.119,2.5-2.5
					v-86.561C80.495,130.317,78.192,128.015,75.362,128.015z"/>
			</g>
		</g>
		<g>
			<g>
				<path d="M116.604,108.426h-15.355c-2.83,0-5.133,2.302-5.133,5.132v106.349c0,1.381,1.119,2.5,2.5,2.5s2.5-1.119,2.5-2.5
					V113.558c0-0.072,0.06-0.132,0.133-0.132h15.355c0.073,0,0.133,0.06,0.133,0.132v106.349c0,1.381,1.119,2.5,2.5,2.5
					s2.5-1.119,2.5-2.5V113.558C121.736,110.728,119.434,108.426,116.604,108.426z"/>
			</g>
		</g>
		<g>
			<g>
				<path d="M157.845,149.667h-15.355c-2.83,0-5.133,2.302-5.133,5.132v64.951c0,1.381,1.119,2.5,2.5,2.5s2.5-1.119,2.5-2.5v-64.951
					c0-0.072,0.06-0.132,0.133-0.132h15.355c0.073,0,0.133,0.06,0.133,0.132v64.951c0,1.381,1.119,2.5,2.5,2.5s2.5-1.119,2.5-2.5
					v-64.951C162.978,151.969,160.675,149.667,157.845,149.667z"/>
			</g>
		</g>
		<g>
			<g>
				<path d="M199.086,85.742H183.73c-2.83,0-5.132,2.303-5.132,5.133v129c0,1.381,1.119,2.5,2.5,2.5s2.5-1.119,2.5-2.5v-129
					c0-0.073,0.06-0.133,0.132-0.133h15.355c0.073,0,0.133,0.06,0.133,0.133v129.094c0,1.381,1.119,2.5,2.5,2.5s2.5-1.119,2.5-2.5
					V90.875C204.219,88.045,201.916,85.742,199.086,85.742z"/>
			</g>
		</g>
		<g>
			<g>
				<path d="M192.764,35.621c-1.158-0.747-2.708-0.415-3.456,0.745l-39.541,61.29l-39.052-40.028
					c-0.745-0.764-1.895-0.973-2.861-0.512L66.612,76.705c-1.247,0.592-1.778,2.083-1.186,3.33c0.592,1.248,2.084,1.78,3.33,1.186
					l39.627-18.821l39.994,40.993c0.473,0.484,1.119,0.754,1.789,0.754c0.083,0,0.166-0.004,0.25-0.013
					c0.757-0.076,1.438-0.492,1.851-1.132l41.241-63.925C194.258,37.917,193.924,36.369,192.764,35.621z"/>
			</g>
		</g>
		<g>
			<g>
				<path d="M198.148,50.984l-3.413-15.169c-0.303-1.347-1.64-2.188-2.988-1.891l-15.169,3.413
					c-1.347,0.304-2.193,1.642-1.891,2.988c0.304,1.347,1.644,2.193,2.988,1.891l12.729-2.864l2.864,12.729
					c0.262,1.162,1.294,1.952,2.438,1.952c0.182,0,0.366-0.021,0.551-0.062C197.604,53.669,198.451,52.331,198.148,50.984z"/>
			</g>
		</g>
		<g>
			<g>
				<path d="M68,219.854c-1.381,0-2.5,1.119-2.5,2.5v4.58c0,1.381,1.119,2.5,2.5,2.5s2.5-1.119,2.5-2.5v-4.58
					C70.5,220.973,69.381,219.854,68,219.854z"/>
			</g>
		</g>
		<g>
			<g>
				<path d="M109.5,219.997c-1.381,0-2.5,1.119-2.5,2.5v4.58c0,1.381,1.119,2.5,2.5,2.5s2.5-1.119,2.5-2.5v-4.58
					C112,221.116,110.881,219.997,109.5,219.997z"/>
			</g>
		</g>
		<g>
			<g>
				<path d="M150.5,219.997c-1.381,0-2.5,1.119-2.5,2.5v4.58c0,1.381,1.119,2.5,2.5,2.5s2.5-1.119,2.5-2.5v-4.58
					C153,221.116,151.881,219.997,150.5,219.997z"/>
			</g>
		</g>
		<g>
			<g>
				<path d="M191.5,219.997c-1.381,0-2.5,1.119-2.5,2.5v4.58c0,1.381,1.119,2.5,2.5,2.5s2.5-1.119,2.5-2.5v-4.58
					C194,221.116,192.881,219.997,191.5,219.997z"/>
			</g>
		</g>
	</g>
</g>
<g id="Layer_75">
</g>
<g id="Layer_76">
</g>
<g id="Layer_77">
</g>
<g id="Layer_78">
</g>
<g id="Layer_79">
</g>
<g id="Layer_80">
</g>
<g id="Layer_81">
</g>
<g id="Layer_82">
</g>
<g id="Layer_83">
</g>
<g id="Layer_84">
</g>
<g id="Layer_85">
</g>
</svg>
